<?xml version="1.0" encoding="UTF-8" standalone="no"?>
<!-- Created with Inkscape (http://www.inkscape.org/) -->

<svg
   xmlns:dc="http://purl.org/dc/elements/1.1/"
   xmlns:cc="http://creativecommons.org/ns#"
   xmlns:rdf="http://www.w3.org/1999/02/22-rdf-syntax-ns#"
   xmlns:svg="http://www.w3.org/2000/svg"
   xmlns="http://www.w3.org/2000/svg"
   xmlns:sodipodi="http://sodipodi.sourceforge.net/DTD/sodipodi-0.dtd"
   xmlns:inkscape="http://www.inkscape.org/namespaces/inkscape"
   width="558.73999"
   height="558.74005"
   viewBox="0 0 147.83329 147.83331"
   version="1.1"
   id="svg4549"
   inkscape:version="0.92.4 (5da689c313, 2019-01-14)"
   sodipodi:docname="Clock.svg">
  <defs
     id="defs4543" />
  <sodipodi:namedview
     id="base"
     pagecolor="#ffffff"
     bordercolor="#666666"
     borderopacity="1.0"
     inkscape:pageopacity="0.0"
     inkscape:pageshadow="2"
     inkscape:zoom="0.78113202"
     inkscape:cx="104.50995"
     inkscape:cy="317.43987"
     inkscape:document-units="mm"
     inkscape:current-layer="layer1"
     showgrid="false"
     units="px"
     inkscape:window-width="1920"
     inkscape:window-height="1017"
     inkscape:window-x="-8"
     inkscape:window-y="-8"
     inkscape:window-maximized="1"
     fit-margin-top="0"
     fit-margin-left="0"
     fit-margin-right="0"
     fit-margin-bottom="0" />
  <metadata
     id="metadata4546">
    <rdf:RDF>
      <cc:Work
         rdf:about="">
        <dc:format>image/svg+xml</dc:format>
        <dc:type
           rdf:resource="http://purl.org/dc/dcmitype/StillImage" />
        <dc:title></dc:title>
      </cc:Work>
    </rdf:RDF>
  </metadata>
  <g
     inkscape:label="Layer 1"
     inkscape:groupmode="layer"
     id="layer1"
     transform="translate(-180.08335,-80.208317)">
    <path
       style="opacity:1;fill:none;fill-opacity:1;stroke:#800000;stroke-width:3.56195712;stroke-linecap:square;stroke-linejoin:bevel;stroke-miterlimit:4;stroke-dasharray:none;stroke-opacity:0.69019608;paint-order:markers fill stroke"
       d="M 326.13567,154.12497 A 72.135674,72.135674 0 0 1 254,226.26064 72.135674,72.135674 0 0 1 181.86433,154.12497 72.135674,72.135674 0 0 1 254,81.989296 72.135674,72.135674 0 0 1 326.13567,154.12497 Z"
       id="path5094"
       inkscape:connector-curvature="0" />
    <path
       style="opacity:1;fill:#800000;fill-opacity:1;stroke:none;stroke-width:7.67068005;stroke-linecap:square;stroke-linejoin:bevel;stroke-miterlimit:4;stroke-dasharray:none;stroke-opacity:0.69019608;paint-order:markers fill stroke"
       d="M 949.52734,319.56445 V 511.625 A 30.267651,30.267651 0 0 0 929.73242,540 a 30.267651,30.267651 0 0 0 0.30664,4.05469 l -109.625,66.53906 10.5293,17.34961 108.44922,-65.82617 A 30.267651,30.267651 0 0 0 960,570.26758 30.267651,30.267651 0 0 0 990.26758,540 30.267651,30.267651 0 0 0 970.76172,511.74609 V 319.56445 Z"
       transform="matrix(0.26458333,0,0,0.26458333,0,11.249966)"
       id="path5126"
       inkscape:connector-curvature="0" />
  </g>
</svg>
