<svg width="106.55mm" height="106.55mm" version="1.1" viewBox="0 0 106.55 106.55" xmlns="http://www.w3.org/2000/svg"><g transform="translate(-51.723 -95.223)"><path d="m91.294 110.97h25.887c4.3631 0 7.8757 3.5126 7.8757 7.8757v10.82c0 4.3631-3.5126 7.8757-7.8757 7.8757h-25.887c-4.3631 0-7.8757-3.5126-7.8757-7.8757v-10.82c0-4.3631 3.5126-7.8757 7.8757-7.8757z" style="fill:#fff;paint-order:markers fill stroke;stroke-linecap:square;stroke-linejoin:bevel;stroke-width:.64194;stroke:#800000"/><path d="m157.83 148.5c0 29.175-23.651 52.826-52.826 52.826-29.175 0-52.826-23.651-52.826-52.826-1e-6 -29.175 23.651-52.826 52.826-52.826 29.175 0 52.826 23.651 52.826 52.826z" style="fill:none;paint-order:markers fill stroke;stroke-linecap:square;stroke-linejoin:bevel;stroke-width:.90118;stroke:#800000"/><path d="m68.115 128.89h73.77v39.221h-73.77z" style="fill:#fff;paint-order:markers fill stroke;stroke-linecap:square;stroke-linejoin:bevel;stroke-width:.86446;stroke:#800000"/><path d="m80.7 148.81h51.993c2.3925 0 4.3187 1.9261 4.3187 4.3186s-1.9261 4.3186-4.3187 4.3186h-51.993c-2.3925 0-4.3187-1.9261-4.3187-4.3186s1.9261-4.3186 4.3187-4.3186z" style="paint-order:markers fill stroke;stroke-linecap:square;stroke-linejoin:bevel;stroke-width:.79375;stroke:#800000"/><path d="m84.991 152.49h42.473v37.186h-42.473z" style="fill:#fff;paint-order:markers fill stroke;stroke-linecap:square;stroke-linejoin:bevel;stroke-width:.69747;stroke:#800000"/><path d="m75.703 136.62a2.7097 2.7097 0 0 1-2.7097 2.7097 2.7097 2.7097 0 0 1-2.7097-2.7097 2.7097 2.7097 0 0 1 2.7097-2.7097 2.7097 2.7097 0 0 1 2.7097 2.7097z" style="paint-order:markers fill stroke;stroke-linecap:square;stroke-linejoin:bevel;stroke-width:.79375;stroke:#800000"/><path d="m82.308 136.62a2.7097 2.7097 0 0 1-2.7097 2.7097 2.7097 2.7097 0 0 1-2.7097-2.7097 2.7097 2.7097 0 0 1 2.7097-2.7097 2.7097 2.7097 0 0 1 2.7097 2.7097z" style="paint-order:markers fill stroke;stroke-linecap:square;stroke-linejoin:bevel;stroke-width:.79375;stroke:#800000"/><path d="m89.76 156.43h32.517c1.5012 0 2.7097 1.2085 2.7097 2.7097s-1.2086 2.7097-2.7097 2.7097h-32.517c-1.5012 0-2.7097-1.2085-2.7097-2.7097s1.2085-2.7097 2.7097-2.7097z" style="paint-order:markers fill stroke;stroke-linecap:square;stroke-linejoin:bevel;stroke-width:.79375;stroke:#800000"/><path d="m89.76 164.22h32.517c1.5012 0 2.7097 1.2086 2.7097 2.7097 0 1.5012-1.2086 2.7098-2.7097 2.7098h-32.517c-1.5012 0-2.7097-1.2086-2.7097-2.7098 0-1.5012 1.2085-2.7097 2.7097-2.7097z" style="paint-order:markers fill stroke;stroke-linecap:square;stroke-linejoin:bevel;stroke-width:.79375;stroke:#800000"/><path d="m89.76 172.52h32.517c1.5012 0 2.7097 1.2086 2.7097 2.7098 0 1.5012-1.2086 2.7097-2.7097 2.7097h-32.517c-1.5012 0-2.7097-1.2086-2.7097-2.7097 0-1.5012 1.2085-2.7098 2.7097-2.7098z" style="paint-order:markers fill stroke;stroke-linecap:square;stroke-linejoin:bevel;stroke-width:.79375;stroke:#800000"/><path d="m89.76 180.31h32.517c1.5012 0 2.7097 1.2085 2.7097 2.7097s-1.2086 2.7097-2.7097 2.7097h-32.517c-1.5012 0-2.7097-1.2085-2.7097-2.7097s1.2085-2.7097 2.7097-2.7097z" style="paint-order:markers fill stroke;stroke-linecap:square;stroke-linejoin:bevel;stroke-width:.79375;stroke:#800000"/></g></svg>
