<?xml version="1.0" encoding="UTF-8" standalone="no"?>
<!-- Created with Inkscape (http://www.inkscape.org/) -->

<svg
   xmlns:dc="http://purl.org/dc/elements/1.1/"
   xmlns:cc="http://creativecommons.org/ns#"
   xmlns:rdf="http://www.w3.org/1999/02/22-rdf-syntax-ns#"
   xmlns:svg="http://www.w3.org/2000/svg"
   xmlns="http://www.w3.org/2000/svg"
   xmlns:sodipodi="http://sodipodi.sourceforge.net/DTD/sodipodi-0.dtd"
   xmlns:inkscape="http://www.inkscape.org/namespaces/inkscape"
   width="502.3624"
   height="502.3624"
   viewBox="0 0 132.91672 132.91673"
   version="1.1"
   id="svg8"
   inkscape:version="0.92.4 (5da689c313, 2019-01-14)"
   sodipodi:docname="HemLocke.svg">
  <defs
     id="defs2" />
  <sodipodi:namedview
     id="base"
     pagecolor="#ffffff"
     bordercolor="#666666"
     borderopacity="1.0"
     inkscape:pageopacity="0.0"
     inkscape:pageshadow="2"
     inkscape:zoom="0.7890625"
     inkscape:cx="71.860892"
     inkscape:cy="283.49628"
     inkscape:document-units="px"
     inkscape:current-layer="g4766"
     showgrid="false"
     units="px"
     showguides="false"
     inkscape:window-width="1920"
     inkscape:window-height="1017"
     inkscape:window-x="-8"
     inkscape:window-y="-8"
     inkscape:window-maximized="1"
     inkscape:snap-nodes="false"
     fit-margin-top="0"
     fit-margin-left="0"
     fit-margin-right="0"
     fit-margin-bottom="0"
     inkscape:pagecheckerboard="true" />
  <metadata
     id="metadata5">
    <rdf:RDF>
      <cc:Work
         rdf:about="">
        <dc:format>image/svg+xml</dc:format>
        <dc:type
           rdf:resource="http://purl.org/dc/dcmitype/StillImage" />
        <dc:title></dc:title>
      </cc:Work>
    </rdf:RDF>
  </metadata>
  <g
     inkscape:label="Layer 1"
     inkscape:groupmode="layer"
     id="layer1"
     transform="translate(-378.32238,31.347422)">
    <g
       id="g4708"
       transform="translate(13.470384,5.2384828)">
      <g
         id="g4766"
         transform="translate(25.929167,14.022916)">
        <flowRoot
           xml:space="preserve"
           id="flowRoot4768"
           style="font-style:normal;font-weight:normal;font-size:40px;line-height:1.25;font-family:sans-serif;letter-spacing:0px;word-spacing:0px;fill:#000000;fill-opacity:1;stroke:none"><flowRegion
             id="flowRegion4770"><rect
               id="rect4772"
               width="212"
               height="368"
               x="-360"
               y="428" /></flowRegion><flowPara
             id="flowPara4774" /></flowRoot>        <path
           style="opacity:1;fill:#f5f5f5;stroke:#800000;stroke-width:0.45888355;stroke-linecap:square;stroke-linejoin:bevel;stroke-miterlimit:4;stroke-dasharray:none;stroke-opacity:0.69019608;paint-order:markers fill stroke;fill-opacity:1"
           d="M 405.89902,-27.698295 V 5.8370876 c -2.71239,0.476589 -5.78143,0.728579 -8.90638,0.731281 -3.03657,-6.67e-4 -6.0234,-0.236827 -8.68363,-0.686487 V -27.319236 h -24.18019 v 6.838599 c 7.67353,1.111311 13.62118,14.0485716 13.62906,29.6457796 -1.9e-4,15.6086824 -5.9499,28.5634514 -13.62906,29.6755794 v 6.8088 h 24.18019 V 12.452289 c 2.65905,-0.451086 5.64604,-0.688624 8.68382,-0.69056 3.12413,0.0017 6.19305,0.25302 8.90619,0.728686 v 32.780048 h 24.18019 19.90747 V 21.200256 h -6.83991 c -0.86209,5.792256 -8.66246,10.784789 -19.86823,12.716409 -4.24964,-5.451406 -6.82648,-14.934964 -6.82839,-25.1305814 0.008,-15.5972003 5.95553,-28.5344686 13.62906,-29.6457786 v -6.8386 z m -36.24111,3.947909 h 13.23786 c 0,10.530779 -0.11003,21.3179496 -0.0513,31.9401196 h 27.90071 c 0,-10.621997 0.0612,-21.4101816 -0.0517,-31.9401196 h 13.23786 v 1.616366 h -11.66301 v 61.880005 h 32.36311 V 28.273917 h 1.62375 v 13.177456 c -11.68649,-7.58e-4 -23.73099,5.69e-4 -35.51002,0 V 39.745985 9.7614939 h -27.90071 c 0,10.5390701 -0.0606,21.2420931 0.0513,31.6898791 H 369.6579 v -1.616174 h 11.66375 V -22.13402 H 369.6579 Z"
           id="path891"
           inkscape:connector-curvature="0" />
        <g
           aria-label="Pit Style Barbecue"
           style="font-style:normal;font-variant:normal;font-weight:normal;font-stretch:normal;font-size:10.29601192px;line-height:1.25;font-family:Lato;-inkscape-font-specification:'Lato, Normal';font-variant-ligatures:normal;font-variant-caps:normal;font-variant-numeric:normal;font-feature-settings:normal;text-align:start;letter-spacing:0px;word-spacing:0px;writing-mode:lr-tb;text-anchor:start;fill:#f5f5f5;fill-opacity:1;stroke:#800000;stroke-width:0.31829375;stroke-miterlimit:4;stroke-dasharray:none;stroke-opacity:0.69019608;opacity:1"
           id="text859"
           transform="matrix(0.91670823,0,0,0.96508849,38.916517,-4.6334222)">
          <path
             d="m 362.686,64.183006 v 2.759331 h -0.99356 v -7.377093 h 2.17761 q 0.70012,0 1.21492,0.164737 0.51995,0.159588 0.85972,0.458172 0.33977,0.298585 0.50451,0.720721 0.16988,0.422137 0.16988,0.942085 0,0.514801 -0.18018,0.942085 -0.18018,0.427285 -0.53024,0.736165 -0.34492,0.30888 -0.85972,0.483913 -0.5148,0.169884 -1.17889,0.169884 z m 0,-0.792793 h 1.18405 q 0.42728,0 0.7516,-0.113256 0.32948,-0.113256 0.55084,-0.314029 0.22137,-0.20592 0.33462,-0.48906 0.11326,-0.28314 0.11326,-0.622909 0,-0.705277 -0.43758,-1.101673 -0.43244,-0.396397 -1.31274,-0.396397 H 362.686 Z"
             style="font-style:normal;font-variant:normal;font-weight:normal;font-stretch:normal;font-size:10.29601192px;font-family:Lato;-inkscape-font-specification:'Lato, Normal';font-variant-ligatures:normal;font-variant-caps:normal;font-variant-numeric:normal;font-feature-settings:normal;text-align:start;writing-mode:lr-tb;text-anchor:start;fill:#f5f5f5;stroke:#800000;stroke-width:0.31829375;stroke-miterlimit:4;stroke-dasharray:none;stroke-opacity:0.69019608;fill-opacity:1"
             id="path878"
             inkscape:connector-curvature="0" />
          <path
             d="m 368.75888,61.727407 v 5.21493 h -0.91634 v -5.21493 z m 0.20592,-1.637066 q 0,0.133848 -0.0566,0.252252 -0.0515,0.113257 -0.14414,0.205921 -0.0875,0.08752 -0.20592,0.138996 -0.11841,0.05148 -0.25225,0.05148 -0.13385,0 -0.25226,-0.05148 -0.11325,-0.05148 -0.20592,-0.138996 -0.0875,-0.09266 -0.13899,-0.205921 -0.0515,-0.118404 -0.0515,-0.252252 0,-0.133848 0.0515,-0.252252 0.0515,-0.123552 0.13899,-0.211068 0.0927,-0.09266 0.20592,-0.144145 0.11841,-0.05148 0.25226,-0.05148 0.13384,0 0.25225,0.05148 0.1184,0.05148 0.20592,0.144145 0.0927,0.08752 0.14414,0.211068 0.0566,0.118404 0.0566,0.252252 z"
             style="font-style:normal;font-variant:normal;font-weight:normal;font-stretch:normal;font-size:10.29601192px;font-family:Lato;-inkscape-font-specification:'Lato, Normal';font-variant-ligatures:normal;font-variant-caps:normal;font-variant-numeric:normal;font-feature-settings:normal;text-align:start;writing-mode:lr-tb;text-anchor:start;fill:#f5f5f5;stroke:#800000;stroke-width:0.31829375;stroke-miterlimit:4;stroke-dasharray:none;stroke-opacity:0.69019608;fill-opacity:1"
             id="path880"
             inkscape:connector-curvature="0" />
          <path
             d="m 371.95434,67.024705 q -0.61776,0 -0.95238,-0.344916 -0.32947,-0.344917 -0.32947,-0.993565 V 62.49446 h -0.62806 q -0.0824,0 -0.13899,-0.04633 -0.0566,-0.05148 -0.0566,-0.15444 v -0.365509 l 0.85457,-0.108108 0.21107,-1.611326 q 0.0103,-0.07722 0.0669,-0.123552 0.0566,-0.05148 0.14415,-0.05148 h 0.46332 v 1.796654 h 1.49292 v 0.664093 h -1.49292 v 3.129988 q 0,0.329472 0.15958,0.48906 0.15959,0.159588 0.41185,0.159588 0.14414,0 0.2471,-0.03604 0.10811,-0.04118 0.18533,-0.08752 0.0772,-0.04633 0.1287,-0.08237 0.0566,-0.04118 0.0978,-0.04118 0.0721,0 0.1287,0.08752 l 0.2677,0.437581 q -0.23681,0.221364 -0.57143,0.350064 -0.33462,0.123552 -0.68984,0.123552 z"
             style="font-style:normal;font-variant:normal;font-weight:normal;font-stretch:normal;font-size:10.29601192px;font-family:Lato;-inkscape-font-specification:'Lato, Normal';font-variant-ligatures:normal;font-variant-caps:normal;font-variant-numeric:normal;font-feature-settings:normal;text-align:start;writing-mode:lr-tb;text-anchor:start;fill:#f5f5f5;stroke:#800000;stroke-width:0.31829375;stroke-miterlimit:4;stroke-dasharray:none;stroke-opacity:0.69019608;fill-opacity:1"
             id="path882"
             inkscape:connector-curvature="0" />
          <path
             d="m 380.12841,60.718398 q -0.0463,0.07722 -0.0978,0.118404 -0.0515,0.03604 -0.13385,0.03604 -0.0875,0 -0.20592,-0.08752 -0.11325,-0.08752 -0.29343,-0.190476 -0.17504,-0.108108 -0.42729,-0.195625 -0.2471,-0.08752 -0.60232,-0.08752 -0.33462,0 -0.59202,0.09266 -0.2574,0.08752 -0.43243,0.241957 -0.16988,0.15444 -0.2574,0.365508 -0.0875,0.20592 -0.0875,0.447877 0,0.30888 0.14929,0.5148 0.15444,0.200773 0.40154,0.344917 0.25225,0.144144 0.56628,0.252252 0.31918,0.10296 0.64865,0.216216 0.33462,0.113256 0.64865,0.257401 0.31918,0.138996 0.56628,0.355212 0.25225,0.216216 0.40155,0.530245 0.15444,0.314028 0.15444,0.7722 0,0.483913 -0.16474,0.911197 -0.16474,0.422137 -0.48391,0.736165 -0.31403,0.314029 -0.77735,0.494209 -0.45817,0.18018 -1.04505,0.18018 -0.71557,0 -1.30759,-0.2574 -0.58687,-0.262548 -1.00386,-0.705277 l 0.28829,-0.473617 q 0.0412,-0.05663 0.0978,-0.09266 0.0618,-0.04118 0.13385,-0.04118 0.1081,0 0.2471,0.118404 0.139,0.113257 0.34492,0.252253 0.21107,0.138996 0.5045,0.2574 0.29859,0.113256 0.72587,0.113256 0.35521,0 0.63321,-0.09781 0.27799,-0.09781 0.46846,-0.272844 0.19563,-0.18018 0.29859,-0.427285 0.10296,-0.247104 0.10296,-0.550836 0,-0.334621 -0.15444,-0.545689 -0.14929,-0.216216 -0.3964,-0.36036 -0.2471,-0.144145 -0.56628,-0.241957 -0.31403,-0.10296 -0.64865,-0.20592 -0.32947,-0.108108 -0.64865,-0.247104 -0.31402,-0.138996 -0.56113,-0.360361 -0.2471,-0.221364 -0.40154,-0.550836 -0.1493,-0.334621 -0.1493,-0.823681 0,-0.391249 0.1493,-0.756757 0.15444,-0.365509 0.44272,-0.648649 0.28829,-0.28314 0.71043,-0.453024 0.42728,-0.169885 0.97812,-0.169885 0.61776,0 1.12741,0.195625 0.50966,0.195624 0.89061,0.56628 z"
             style="font-style:normal;font-variant:normal;font-weight:normal;font-stretch:normal;font-size:10.29601192px;font-family:Lato;-inkscape-font-specification:'Lato, Normal';font-variant-ligatures:normal;font-variant-caps:normal;font-variant-numeric:normal;font-feature-settings:normal;text-align:start;writing-mode:lr-tb;text-anchor:start;fill:#f5f5f5;stroke:#800000;stroke-width:0.31829375;stroke-miterlimit:4;stroke-dasharray:none;stroke-opacity:0.69019608;fill-opacity:1"
             id="path884"
             inkscape:connector-curvature="0" />
          <path
             d="m 383.23572,67.024705 q -0.61776,0 -0.95238,-0.344916 -0.32948,-0.344917 -0.32948,-0.993565 V 62.49446 h -0.62805 q -0.0824,0 -0.139,-0.04633 -0.0566,-0.05148 -0.0566,-0.15444 v -0.365509 l 0.85457,-0.108108 0.21107,-1.611326 q 0.0103,-0.07722 0.0669,-0.123552 0.0566,-0.05148 0.14415,-0.05148 h 0.46332 v 1.796654 h 1.49292 v 0.664093 h -1.49292 v 3.129988 q 0,0.329472 0.15959,0.48906 0.15959,0.159588 0.41184,0.159588 0.14414,0 0.2471,-0.03604 0.10811,-0.04118 0.18533,-0.08752 0.0772,-0.04633 0.1287,-0.08237 0.0566,-0.04118 0.0978,-0.04118 0.0721,0 0.1287,0.08752 l 0.2677,0.437581 q -0.23681,0.221364 -0.57143,0.350064 -0.33462,0.123552 -0.68983,0.123552 z"
             style="font-style:normal;font-variant:normal;font-weight:normal;font-stretch:normal;font-size:10.29601192px;font-family:Lato;-inkscape-font-specification:'Lato, Normal';font-variant-ligatures:normal;font-variant-caps:normal;font-variant-numeric:normal;font-feature-settings:normal;text-align:start;writing-mode:lr-tb;text-anchor:start;fill:#f5f5f5;stroke:#800000;stroke-width:0.31829375;stroke-miterlimit:4;stroke-dasharray:none;stroke-opacity:0.69019608;fill-opacity:1"
             id="path886"
             inkscape:connector-curvature="0" />
          <path
             d="m 387.02513,68.481591 q -0.0463,0.10296 -0.1184,0.164736 -0.0669,0.06178 -0.21107,0.06178 h -0.67954 l 0.95238,-2.069498 -2.15186,-4.911198 h 0.79279 q 0.11841,0 0.18533,0.06178 0.0669,0.05663 0.0978,0.1287 l 1.39511,3.284428 q 0.0463,0.113256 0.0772,0.226512 0.036,0.113256 0.0618,0.231661 0.036,-0.118405 0.0721,-0.231661 0.036,-0.113256 0.0824,-0.23166 l 1.35392,-3.27928 q 0.0309,-0.08237 0.10296,-0.133848 0.0772,-0.05663 0.16474,-0.05663 h 0.73102 z"
             style="font-style:normal;font-variant:normal;font-weight:normal;font-stretch:normal;font-size:10.29601192px;font-family:Lato;-inkscape-font-specification:'Lato, Normal';font-variant-ligatures:normal;font-variant-caps:normal;font-variant-numeric:normal;font-feature-settings:normal;text-align:start;writing-mode:lr-tb;text-anchor:start;fill:#f5f5f5;stroke:#800000;stroke-width:0.31829375;stroke-miterlimit:4;stroke-dasharray:none;stroke-opacity:0.69019608;fill-opacity:1"
             id="path888"
             inkscape:connector-curvature="0" />
          <path
             d="m 391.78414,59.359324 v 7.583013 h -0.91634 v -7.583013 z"
             style="font-style:normal;font-variant:normal;font-weight:normal;font-stretch:normal;font-size:10.29601192px;font-family:Lato;-inkscape-font-specification:'Lato, Normal';font-variant-ligatures:normal;font-variant-caps:normal;font-variant-numeric:normal;font-feature-settings:normal;text-align:start;writing-mode:lr-tb;text-anchor:start;fill:#f5f5f5;stroke:#800000;stroke-width:0.31829375;stroke-miterlimit:4;stroke-dasharray:none;stroke-opacity:0.69019608;fill-opacity:1"
             id="path890"
             inkscape:connector-curvature="0" />
          <path
             d="m 395.46352,61.645039 q 0.46847,0 0.86486,0.159588 0.3964,0.15444 0.68469,0.453025 0.28829,0.293436 0.44788,0.731016 0.16473,0.432433 0.16473,0.988418 0,0.216216 -0.0463,0.288288 -0.0463,0.07207 -0.17503,0.07207 h -3.46976 q 0.0103,0.494209 0.13385,0.859717 0.12355,0.365508 0.33977,0.612613 0.21621,0.241956 0.5148,0.365508 0.29858,0.118404 0.66924,0.118404 0.34492,0 0.59202,-0.07722 0.25225,-0.08237 0.43243,-0.175032 0.18018,-0.09266 0.29859,-0.169884 0.12355,-0.08237 0.21107,-0.08237 0.11325,0 0.17503,0.08752 l 0.2574,0.33462 q -0.16989,0.20592 -0.40669,0.360361 -0.23681,0.149292 -0.50966,0.247104 -0.26769,0.09781 -0.55598,0.144144 -0.28829,0.05148 -0.57143,0.05148 -0.54054,0 -0.99871,-0.18018 -0.45303,-0.185328 -0.78765,-0.535393 -0.32947,-0.355212 -0.5148,-0.875161 -0.18533,-0.519948 -0.18533,-1.194337 0,-0.545689 0.16474,-1.019305 0.16988,-0.473617 0.48391,-0.818533 0.31403,-0.350065 0.76705,-0.545689 0.45303,-0.200772 1.01931,-0.200772 z m 0.0206,0.674389 q -0.66409,0 -1.04504,0.3861 -0.38096,0.380953 -0.47362,1.060489 h 2.83655 q 0,-0.319176 -0.0875,-0.581724 -0.0875,-0.267697 -0.2574,-0.458173 -0.16988,-0.195624 -0.41698,-0.298584 -0.24196,-0.108108 -0.55599,-0.108108 z"
             style="font-style:normal;font-variant:normal;font-weight:normal;font-stretch:normal;font-size:10.29601192px;font-family:Lato;-inkscape-font-specification:'Lato, Normal';font-variant-ligatures:normal;font-variant-caps:normal;font-variant-numeric:normal;font-feature-settings:normal;text-align:start;writing-mode:lr-tb;text-anchor:start;fill:#f5f5f5;stroke:#800000;stroke-width:0.31829375;stroke-miterlimit:4;stroke-dasharray:none;stroke-opacity:0.69019608;fill-opacity:1"
             id="path892"
             inkscape:connector-curvature="0" />
          <path
             d="m 400.92346,66.942337 v -7.377093 h 2.35264 q 0.67954,0 1.1686,0.133849 0.49421,0.133848 0.80824,0.380952 0.31917,0.247104 0.46846,0.607465 0.15444,0.355212 0.15444,0.803089 0,0.272844 -0.0875,0.525096 -0.0824,0.252253 -0.2574,0.468469 -0.16989,0.216216 -0.43243,0.3861 -0.2574,0.169885 -0.60747,0.277993 0.80824,0.159588 1.22008,0.581724 0.41184,0.422137 0.41184,1.11197 0,0.468468 -0.17503,0.854569 -0.16989,0.3861 -0.50451,0.664092 -0.32947,0.277993 -0.81338,0.432433 -0.47877,0.149292 -1.09653,0.149292 z m 0.99872,-3.361648 v 2.568855 h 1.59588 q 0.42728,0 0.73101,-0.09781 0.30889,-0.09781 0.50451,-0.272844 0.20077,-0.180181 0.29344,-0.422137 0.0927,-0.247104 0.0927,-0.54054 0,-0.571429 -0.40669,-0.900901 -0.40155,-0.334621 -1.22008,-0.334621 z m 0,-0.710425 h 1.31789 q 0.42213,0 0.73101,-0.09266 0.30888,-0.09266 0.50966,-0.2574 0.20592,-0.164736 0.30373,-0.396397 0.0978,-0.236808 0.0978,-0.5148 0,-0.648649 -0.39125,-0.952381 -0.39125,-0.303733 -1.21493,-0.303733 h -1.35392 z"
             style="font-style:normal;font-variant:normal;font-weight:normal;font-stretch:normal;font-size:10.29601192px;font-family:Lato;-inkscape-font-specification:'Lato, Normal';font-variant-ligatures:normal;font-variant-caps:normal;font-variant-numeric:normal;font-feature-settings:normal;text-align:start;writing-mode:lr-tb;text-anchor:start;fill:#f5f5f5;stroke:#800000;stroke-width:0.31829375;stroke-miterlimit:4;stroke-dasharray:none;stroke-opacity:0.69019608;fill-opacity:1"
             id="path894"
             inkscape:connector-curvature="0" />
          <path
             d="m 411.26565,66.942337 h -0.4067 q -0.13384,0 -0.21621,-0.04118 -0.0824,-0.04118 -0.10811,-0.175032 l -0.10296,-0.483913 q -0.20592,0.185328 -0.40154,0.334621 -0.19563,0.144144 -0.41184,0.247104 -0.21622,0.09781 -0.46333,0.149292 -0.24195,0.05148 -0.54054,0.05148 -0.30373,0 -0.57142,-0.08237 -0.26255,-0.08752 -0.45818,-0.2574 -0.19562,-0.169884 -0.31403,-0.427285 -0.11325,-0.262548 -0.11325,-0.61776 0,-0.308881 0.16988,-0.592021 0.16989,-0.288288 0.54569,-0.509653 0.38095,-0.221364 0.99357,-0.36036 0.61261,-0.144144 1.49807,-0.164736 v -0.406693 q 0,-0.607465 -0.26255,-0.916345 -0.2574,-0.314028 -0.76706,-0.314028 -0.33462,0 -0.56628,0.08752 -0.22651,0.08237 -0.39639,0.190476 -0.16474,0.10296 -0.28829,0.190476 -0.1184,0.08237 -0.23681,0.08237 -0.0927,0 -0.16474,-0.04633 -0.0669,-0.05148 -0.1081,-0.123552 l -0.16474,-0.293436 q 0.43243,-0.416989 0.93179,-0.622909 0.49936,-0.20592 1.10682,-0.20592 0.43758,0 0.77735,0.144144 0.33977,0.144144 0.57143,0.401545 0.23166,0.2574 0.35006,0.622908 0.11841,0.365509 0.11841,0.803089 z m -2.37838,-0.561133 q 0.24195,0 0.44273,-0.04633 0.20077,-0.05148 0.3758,-0.138996 0.18018,-0.09266 0.33977,-0.221364 0.16474,-0.1287 0.31918,-0.293436 v -1.08623 q -0.63321,0.02059 -1.07594,0.10296 -0.44273,0.07722 -0.72072,0.205921 -0.27799,0.1287 -0.40669,0.303732 -0.12355,0.175032 -0.12355,0.391248 0,0.205921 0.0669,0.355213 0.0669,0.149292 0.18018,0.247104 0.11326,0.09266 0.2677,0.138996 0.15444,0.04118 0.33462,0.04118 z"
             style="font-style:normal;font-variant:normal;font-weight:normal;font-stretch:normal;font-size:10.29601192px;font-family:Lato;-inkscape-font-specification:'Lato, Normal';font-variant-ligatures:normal;font-variant-caps:normal;font-variant-numeric:normal;font-feature-settings:normal;text-align:start;writing-mode:lr-tb;text-anchor:start;fill:#f5f5f5;stroke:#800000;stroke-width:0.31829375;stroke-miterlimit:4;stroke-dasharray:none;stroke-opacity:0.69019608;fill-opacity:1"
             id="path896"
             inkscape:connector-curvature="0" />
          <path
             d="m 412.66397,66.942337 v -5.21493 h 0.5251 q 0.14929,0 0.20592,0.05663 0.0566,0.05663 0.0772,0.195624 l 0.0618,0.813385 q 0.26769,-0.545688 0.65894,-0.849421 0.3964,-0.30888 0.92664,-0.30888 0.21622,0 0.39125,0.05148 0.17503,0.04633 0.32433,0.133848 l -0.11841,0.684685 q -0.036,0.1287 -0.15959,0.1287 -0.0721,0 -0.22136,-0.04633 -0.14929,-0.05148 -0.41699,-0.05148 -0.47876,0 -0.80309,0.277992 -0.31917,0.277993 -0.53539,0.808237 v 3.320464 z"
             style="font-style:normal;font-variant:normal;font-weight:normal;font-stretch:normal;font-size:10.29601192px;font-family:Lato;-inkscape-font-specification:'Lato, Normal';font-variant-ligatures:normal;font-variant-caps:normal;font-variant-numeric:normal;font-feature-settings:normal;text-align:start;writing-mode:lr-tb;text-anchor:start;fill:#f5f5f5;stroke:#800000;stroke-width:0.31829375;stroke-miterlimit:4;stroke-dasharray:none;stroke-opacity:0.69019608;fill-opacity:1"
             id="path898"
             inkscape:connector-curvature="0" />
          <path
             d="m 416.8374,66.942337 v -7.583013 h 0.92149 v 3.119692 q 0.32433,-0.375805 0.74131,-0.602317 0.42214,-0.23166 0.96268,-0.23166 0.45303,0 0.81853,0.169884 0.36551,0.169884 0.62291,0.509653 0.2574,0.33462 0.3964,0.833977 0.139,0.494208 0.139,1.142857 0,0.576577 -0.15444,1.075933 -0.15444,0.494209 -0.44788,0.859717 -0.28829,0.360361 -0.71043,0.571429 -0.41698,0.20592 -0.94208,0.20592 -0.50451,0 -0.85972,-0.195624 -0.35006,-0.195624 -0.61261,-0.545689 l -0.0463,0.473617 q -0.0412,0.195624 -0.23681,0.195624 z m 2.3269,-4.566281 q -0.44788,0 -0.78765,0.20592 -0.33462,0.20592 -0.61776,0.581725 v 2.522523 q 0.24711,0.339768 0.54569,0.478764 0.30373,0.138996 0.67439,0.138996 0.73102,0 1.12226,-0.519948 0.39125,-0.519949 0.39125,-1.482626 0,-0.509653 -0.0927,-0.875161 -0.0875,-0.365508 -0.2574,-0.597169 -0.16989,-0.236808 -0.41699,-0.344916 -0.2471,-0.108108 -0.56113,-0.108108 z"
             style="font-style:normal;font-variant:normal;font-weight:normal;font-stretch:normal;font-size:10.29601192px;font-family:Lato;-inkscape-font-specification:'Lato, Normal';font-variant-ligatures:normal;font-variant-caps:normal;font-variant-numeric:normal;font-feature-settings:normal;text-align:start;writing-mode:lr-tb;text-anchor:start;fill:#f5f5f5;stroke:#800000;stroke-width:0.31829375;stroke-miterlimit:4;stroke-dasharray:none;stroke-opacity:0.69019608;fill-opacity:1"
             id="path900"
             inkscape:connector-curvature="0" />
          <path
             d="m 424.62215,61.645039 q 0.46846,0 0.86486,0.159588 0.3964,0.15444 0.68469,0.453025 0.28828,0.293436 0.44787,0.731016 0.16474,0.432433 0.16474,0.988418 0,0.216216 -0.0463,0.288288 -0.0463,0.07207 -0.17504,0.07207 h -3.46975 q 0.0103,0.494209 0.13385,0.859717 0.12355,0.365508 0.33976,0.612613 0.21622,0.241956 0.51481,0.365508 0.29858,0.118404 0.66924,0.118404 0.34491,0 0.59202,-0.07722 0.25225,-0.08237 0.43243,-0.175032 0.18018,-0.09266 0.29858,-0.169884 0.12356,-0.08237 0.21107,-0.08237 0.11326,0 0.17503,0.08752 l 0.2574,0.33462 q -0.16988,0.20592 -0.40669,0.360361 -0.23681,0.149292 -0.50965,0.247104 -0.2677,0.09781 -0.55599,0.144144 -0.28828,0.05148 -0.57142,0.05148 -0.54054,0 -0.99872,-0.18018 -0.45302,-0.185328 -0.78764,-0.535393 -0.32947,-0.355212 -0.5148,-0.875161 -0.18533,-0.519948 -0.18533,-1.194337 0,-0.545689 0.16474,-1.019305 0.16988,-0.473617 0.48391,-0.818533 0.31403,-0.350065 0.76705,-0.545689 0.45303,-0.200772 1.01931,-0.200772 z m 0.0206,0.674389 q -0.66409,0 -1.04505,0.3861 -0.38095,0.380953 -0.47361,1.060489 h 2.83655 q 0,-0.319176 -0.0875,-0.581724 -0.0875,-0.267697 -0.2574,-0.458173 -0.16988,-0.195624 -0.41699,-0.298584 -0.24195,-0.108108 -0.55598,-0.108108 z"
             style="font-style:normal;font-variant:normal;font-weight:normal;font-stretch:normal;font-size:10.29601192px;font-family:Lato;-inkscape-font-specification:'Lato, Normal';font-variant-ligatures:normal;font-variant-caps:normal;font-variant-numeric:normal;font-feature-settings:normal;text-align:start;writing-mode:lr-tb;text-anchor:start;fill:#f5f5f5;stroke:#800000;stroke-width:0.31829375;stroke-miterlimit:4;stroke-dasharray:none;stroke-opacity:0.69019608;fill-opacity:1"
             id="path902"
             inkscape:connector-curvature="0" />
          <path
             d="m 431.50438,62.654048 q -0.0412,0.05663 -0.0824,0.08752 -0.0412,0.03089 -0.11841,0.03089 -0.0772,0 -0.16988,-0.06178 -0.0875,-0.06692 -0.22651,-0.144144 -0.139,-0.07722 -0.33977,-0.138996 -0.19563,-0.06692 -0.48392,-0.06692 -0.38095,0 -0.67438,0.138996 -0.29344,0.133848 -0.49421,0.391248 -0.19563,0.257401 -0.29859,0.622909 -0.0978,0.365508 -0.0978,0.818533 0,0.473617 0.10811,0.844273 0.10811,0.365508 0.30373,0.617761 0.19563,0.247104 0.47362,0.380952 0.28314,0.1287 0.6332,0.1287 0.33462,0 0.55084,-0.07722 0.21622,-0.08237 0.36036,-0.18018 0.14414,-0.09781 0.23681,-0.175032 0.0927,-0.08237 0.18533,-0.08237 0.1184,0 0.17503,0.08752 l 0.2574,0.33462 q -0.33977,0.416989 -0.84942,0.612613 -0.50966,0.190476 -1.07594,0.190476 -0.48906,0 -0.91119,-0.18018 -0.41699,-0.18018 -0.72587,-0.519949 -0.30888,-0.344916 -0.48906,-0.844273 -0.17503,-0.499356 -0.17503,-1.137709 0,-0.581725 0.15958,-1.075933 0.16474,-0.494209 0.47362,-0.849421 0.31403,-0.360361 0.7722,-0.561133 0.45817,-0.200772 1.05019,-0.200772 0.54569,0 0.96783,0.18018 0.42214,0.175032 0.74646,0.499357 z"
             style="font-style:normal;font-variant:normal;font-weight:normal;font-stretch:normal;font-size:10.29601192px;font-family:Lato;-inkscape-font-specification:'Lato, Normal';font-variant-ligatures:normal;font-variant-caps:normal;font-variant-numeric:normal;font-feature-settings:normal;text-align:start;writing-mode:lr-tb;text-anchor:start;fill:#f5f5f5;stroke:#800000;stroke-width:0.31829375;stroke-miterlimit:4;stroke-dasharray:none;stroke-opacity:0.69019608;fill-opacity:1"
             id="path904"
             inkscape:connector-curvature="0" />
          <path
             d="m 433.54606,61.727407 v 3.325612 q 0,0.592021 0.27284,0.916345 0.27285,0.324324 0.82368,0.324324 0.40155,0 0.75676,-0.190476 0.35521,-0.190476 0.6538,-0.530245 v -3.84556 h 0.91634 v 5.21493 h -0.54569 q -0.19562,0 -0.2471,-0.190476 l -0.0721,-0.561133 q -0.33977,0.375805 -0.76191,0.607465 -0.42214,0.226512 -0.96782,0.226512 -0.42729,0 -0.75676,-0.138996 -0.32432,-0.144144 -0.54569,-0.401544 -0.22136,-0.257401 -0.33462,-0.622909 -0.10811,-0.365509 -0.10811,-0.808237 v -3.325612 z"
             style="font-style:normal;font-variant:normal;font-weight:normal;font-stretch:normal;font-size:10.29601192px;font-family:Lato;-inkscape-font-specification:'Lato, Normal';font-variant-ligatures:normal;font-variant-caps:normal;font-variant-numeric:normal;font-feature-settings:normal;text-align:start;writing-mode:lr-tb;text-anchor:start;fill:#f5f5f5;stroke:#800000;stroke-width:0.31829375;stroke-miterlimit:4;stroke-dasharray:none;stroke-opacity:0.69019608;fill-opacity:1"
             id="path906"
             inkscape:connector-curvature="0" />
          <path
             d="m 440.54879,61.645039 q 0.46847,0 0.86487,0.159588 0.39639,0.15444 0.68468,0.453025 0.28829,0.293436 0.44788,0.731016 0.16474,0.432433 0.16474,0.988418 0,0.216216 -0.0463,0.288288 -0.0463,0.07207 -0.17503,0.07207 h -3.46975 q 0.0103,0.494209 0.13384,0.859717 0.12356,0.365508 0.33977,0.612613 0.21622,0.241956 0.5148,0.365508 0.29859,0.118404 0.66924,0.118404 0.34492,0 0.59202,-0.07722 0.25226,-0.08237 0.43244,-0.175032 0.18018,-0.09266 0.29858,-0.169884 0.12355,-0.08237 0.21107,-0.08237 0.11326,0 0.17503,0.08752 l 0.2574,0.33462 q -0.16988,0.20592 -0.40669,0.360361 -0.23681,0.149292 -0.50965,0.247104 -0.2677,0.09781 -0.55599,0.144144 -0.28829,0.05148 -0.57143,0.05148 -0.54054,0 -0.99871,-0.18018 -0.45302,-0.185328 -0.78764,-0.535393 -0.32948,-0.355212 -0.51481,-0.875161 -0.18532,-0.519948 -0.18532,-1.194337 0,-0.545689 0.16473,-1.019305 0.16989,-0.473617 0.48392,-0.818533 0.31402,-0.350065 0.76705,-0.545689 0.45302,-0.200772 1.0193,-0.200772 z m 0.0206,0.674389 q -0.6641,0 -1.04505,0.3861 -0.38095,0.380953 -0.47362,1.060489 h 2.83655 q 0,-0.319176 -0.0875,-0.581724 -0.0875,-0.267697 -0.2574,-0.458173 -0.16989,-0.195624 -0.41699,-0.298584 -0.24196,-0.108108 -0.55598,-0.108108 z"
             style="font-style:normal;font-variant:normal;font-weight:normal;font-stretch:normal;font-size:10.29601192px;font-family:Lato;-inkscape-font-specification:'Lato, Normal';font-variant-ligatures:normal;font-variant-caps:normal;font-variant-numeric:normal;font-feature-settings:normal;text-align:start;writing-mode:lr-tb;text-anchor:start;fill:#f5f5f5;stroke:#800000;stroke-width:0.31829375;stroke-miterlimit:4;stroke-dasharray:none;stroke-opacity:0.69019608;fill-opacity:1"
             id="path908"
             inkscape:connector-curvature="0" />
        </g>
        <circle
           style="opacity:1;fill:none;stroke:#800000;stroke-width:1.21513891;stroke-linecap:square;stroke-linejoin:bevel;stroke-miterlimit:4;stroke-dasharray:none;stroke-opacity:0.69019608;paint-order:markers fill stroke"
           id="path911"
           cx="405.3812"
           cy="15.849541"
           r="65.850792" />
      </g>
    </g>
  </g>
</svg>
